<svg width="25" height="24" viewBox="0 0 25 24" fill="none" xmlns="http://www.w3.org/2000/svg">
<path id="Logomark" d="M21.3474 12.6568H20.0084C19.9832 13.1116 19.9074 13.5663 19.7811 13.9958C18.8968 17.4568 15.7642 20.0084 12.0253 20.0084C8.28631 20.0084 5.15368 17.4568 4.26947 13.9958H5.65895C6.51789 16.6989 9.04421 18.6695 12.0253 18.6695C15.0063 18.6695 17.5326 16.6989 18.3916 13.9958C18.5179 13.5663 18.6189 13.1116 18.6695 12.6568C18.6947 12.4295 18.6947 12.2021 18.6947 12C18.6947 11.7979 18.6947 11.5453 18.6695 11.3432C18.6189 10.8884 18.5432 10.4337 18.3916 10.0042C17.5326 7.30105 15.0063 5.33053 12.0253 5.33053C9.04421 5.33053 6.51789 7.30105 5.65895 10.0042H4.26947C5.15368 6.54316 8.31158 3.99158 12.0253 3.99158C15.7389 3.99158 18.8968 6.54316 19.7811 10.0042C19.8821 10.4337 19.9579 10.8884 20.0084 11.3432H21.3474H22.6863H24.0253C24 10.8884 23.9495 10.4337 23.8737 10.0042C22.9137 4.32 17.9874 0 12.0253 0C6.06316 0 1.13684 4.32 0.176842 10.0042C0.101053 10.4337 0.0505262 10.8884 0.025263 11.3432C0.025263 11.5705 0 11.7979 0 12C0 12.2021 -1.44933e-07 12.4547 0.025263 12.6568C0.0505262 13.1116 0.101053 13.5663 0.176842 13.9958C1.13684 19.68 6.06316 24 12.0253 24C17.9874 24 22.9137 19.68 23.8737 13.9958C23.9495 13.5663 24 13.1116 24.0253 12.6568H22.6863H21.3474ZM12.0253 22.6863C6.82105 22.6863 2.47579 18.9474 1.54105 13.9958C1.46526 13.5663 1.38947 13.1116 1.36421 12.6568C1.33895 12.4295 1.33895 12.2021 1.33895 12C1.33895 11.7726 1.33895 11.5453 1.36421 11.3432C1.38947 10.8884 1.44 10.4337 1.54105 10.0042C2.47579 5.05263 6.82105 1.31368 12.0253 1.31368C17.2295 1.31368 21.5747 5.05263 22.5095 10.0042H21.1453C20.2358 5.81053 16.4968 2.65263 12.0253 2.65263C7.55368 2.65263 3.81474 5.78526 2.90526 10.0042C2.80421 10.4337 2.75368 10.8884 2.70316 11.3432H4.04211H5.38105H6.72C6.77053 10.8884 6.89684 10.4337 7.07368 10.0042C7.8821 8.03368 9.8021 6.66947 12.0253 6.66947C14.2484 6.66947 16.1937 8.05895 16.9768 10.0042C17.1537 10.4337 17.2547 10.8632 17.3305 11.3432C17.3558 11.5705 17.3811 11.7726 17.3811 12C17.3811 12.2274 17.3558 12.4547 17.3305 12.6568C17.28 13.1116 17.1537 13.5663 16.9768 13.9958C16.1937 15.9411 14.2737 17.3305 12.0253 17.3305C9.77684 17.3305 7.8821 15.9663 7.07368 13.9958C6.89684 13.5663 6.79579 13.1368 6.72 12.6568H5.38105H4.04211H2.70316C2.72842 13.1116 2.80421 13.5663 2.90526 13.9958C3.81474 18.1895 7.55368 21.3474 12.0253 21.3474C16.4968 21.3474 20.2358 18.1895 21.1705 13.9958H22.5347C21.6 18.9474 17.2547 22.6863 12.0253 22.6863Z" fill="#2563EB"/>
</svg>
